<svg width="32" height="32" viewBox="0 0 32 32" fill="none" xmlns="http://www.w3.org/2000/svg">
<path d="M25.2308 13H6.76923C6.34872 13 6 12.5467 6 12C6 11.4533 6.34872 11 6.76923 11H25.2308C25.6513 11 26 11.4533 26 12C26 12.5467 25.6513 13 25.2308 13Z" fill="#1A1A1A"/>
<path d="M25.2308 13H6.76923C6.34872 13 6 12.5467 6 12C6 11.4533 6.34872 11 6.76923 11H25.2308C25.6513 11 26 11.4533 26 12C26 12.5467 25.6513 13 25.2308 13Z" fill="#1A1A1A"/>
<path d="M25.2308 17H6.76923C6.34872 17 6 16.5467 6 16C6 15.4533 6.34872 15 6.76923 15H25.2308C25.6513 15 26 15.4533 26 16C26 16.5467 25.6513 17 25.2308 17Z" fill="#999999"/>
<path d="M25.2308 21H6.76923C6.34872 21 6 20.5467 6 20C6 19.4533 6.34872 19 6.76923 19H25.2308C25.6513 19 26 19.4533 26 20C26 20.5467 25.6513 21 25.2308 21Z" fill="#1A1A1A"/>
</svg>
