<svg width="20" height="20" viewBox="0 0 20 20" fill="none" xmlns="http://www.w3.org/2000/svg">
<path d="M13.9582 2.96667V1.66667C13.9582 1.32501 13.6749 1.04167 13.3332 1.04167C12.9915 1.04167 12.7082 1.32501 12.7082 1.66667V2.91667H7.29154V1.66667C7.29154 1.32501 7.0082 1.04167 6.66654 1.04167C6.32487 1.04167 6.04154 1.32501 6.04154 1.66667V2.96667C3.79154 3.175 2.69987 4.51667 2.5332 6.50834C2.51653 6.75 2.71653 6.95 2.94987 6.95H17.0499C17.2915 6.95 17.4915 6.74167 17.4665 6.50834C17.2999 4.51667 16.2082 3.175 13.9582 2.96667Z" fill="#999999"/>
<path d="M17.5 9.03333V10.4833C17.5 10.9917 17.05 11.3833 16.55 11.3C16.3167 11.2667 16.075 11.2417 15.8333 11.2417C13.3083 11.2417 11.25 13.3 11.25 15.825C11.25 16.2083 11.4 16.7417 11.5583 17.225C11.7417 17.7667 11.3417 18.325 10.7667 18.325H6.66667C3.75 18.325 2.5 16.6583 2.5 14.1583V9.02498C2.5 8.56665 2.875 8.19165 3.33333 8.19165H16.6667C17.125 8.19998 17.5 8.57499 17.5 9.03333Z" fill="#999999"/>
<path d="M7.08333 12.5C6.86667 12.5 6.65 12.4083 6.49167 12.2583C6.34167 12.1 6.25 11.8833 6.25 11.6667C6.25 11.45 6.34167 11.2333 6.49167 11.075C6.68333 10.8833 6.975 10.7917 7.25 10.85C7.3 10.8583 7.35 10.875 7.4 10.9C7.45 10.9167 7.5 10.9417 7.55 10.975C7.59166 11.0083 7.63333 11.0417 7.675 11.075C7.825 11.2333 7.91667 11.45 7.91667 11.6667C7.91667 11.8833 7.825 12.1 7.675 12.2583C7.63333 12.2917 7.59166 12.325 7.55 12.3583C7.5 12.3917 7.45 12.4167 7.4 12.4333C7.35 12.4583 7.3 12.475 7.25 12.4833C7.19166 12.4917 7.13333 12.5 7.08333 12.5Z" fill="#999999"/>
<path d="M9.99984 12.5C9.78317 12.5 9.5665 12.4083 9.40817 12.2583C9.25817 12.1 9.1665 11.8833 9.1665 11.6667C9.1665 11.45 9.25817 11.2333 9.40817 11.075C9.72484 10.7667 10.2832 10.7667 10.5915 11.075C10.7415 11.2333 10.8332 11.45 10.8332 11.6667C10.8332 11.8833 10.7415 12.1 10.5915 12.2583C10.4332 12.4083 10.2165 12.5 9.99984 12.5Z" fill="#999999"/>
<path d="M7.08333 15.4167C6.86667 15.4167 6.65 15.325 6.49167 15.175C6.34167 15.0167 6.25 14.8 6.25 14.5833C6.25 14.3667 6.34167 14.15 6.49167 13.9917C6.575 13.9167 6.65834 13.8583 6.76667 13.8167C7.075 13.6833 7.44167 13.7583 7.675 13.9917C7.825 14.15 7.91667 14.3667 7.91667 14.5833C7.91667 14.8 7.825 15.0167 7.675 15.175C7.51667 15.325 7.3 15.4167 7.08333 15.4167Z" fill="#999999"/>
<path d="M18.1917 13.475C16.8917 12.175 14.775 12.175 13.475 13.475C12.175 14.775 12.175 16.8916 13.475 18.1916C14.775 19.4916 16.8917 19.4916 18.1917 18.1916C19.4917 16.8916 19.4917 14.775 18.1917 13.475ZM17.5583 16.3C17.45 16.4167 17.2917 16.4833 17.1167 16.4833H16.5V17.1333C16.5 17.3083 16.4333 17.4583 16.3167 17.575C16.2 17.6917 16.05 17.7583 15.875 17.7583C15.5333 17.7583 15.25 17.475 15.25 17.1333V16.4833H14.625C14.2833 16.4833 14 16.2083 14 15.8583C14 15.5167 14.2833 15.2333 14.625 15.2333H15.25V14.6417C15.25 14.3 15.525 14.0167 15.875 14.0167C16.2167 14.0167 16.5 14.3 16.5 14.6417V15.2333H17.1167C17.4667 15.2333 17.7417 15.5167 17.7417 15.8583C17.7417 16.0333 17.675 16.1917 17.5583 16.3Z" fill="#999999"/>
</svg>
