<svg width="20" height="20" viewBox="0 0 20 20" fill="none" xmlns="http://www.w3.org/2000/svg">
<path d="M18.3335 5V7.01666C18.3335 8.33333 17.5002 9.16666 16.1835 9.16666H13.3335V3.34166C13.3335 2.41666 14.0918 1.65833 15.0168 1.66666C15.9252 1.675 16.7585 2.04166 17.3585 2.64166C17.9585 3.25 18.3335 4.08333 18.3335 5Z" fill="#999999"/>
<path d="M1.6665 5.83333V17.5C1.6665 18.1917 2.44984 18.5833 2.99984 18.1667L4.42484 17.1C4.75817 16.85 5.22484 16.8833 5.52484 17.1833L6.90817 18.575C7.23317 18.9 7.7665 18.9 8.0915 18.575L9.4915 17.175C9.78317 16.8833 10.2498 16.85 10.5748 17.1L11.9998 18.1667C12.5498 18.575 13.3332 18.1833 13.3332 17.5V3.33333C13.3332 2.41666 14.0832 1.66666 14.9998 1.66666H5.83317H4.99984C2.49984 1.66666 1.6665 3.15833 1.6665 5V5.83333Z" fill="#999999"/>
<path d="M10 10.2167H7.5C7.15833 10.2167 6.875 10.5 6.875 10.8417C6.875 11.1833 7.15833 11.4667 7.5 11.4667H10C10.3417 11.4667 10.625 11.1833 10.625 10.8417C10.625 10.5 10.3417 10.2167 10 10.2167Z" fill="white"/>
<path d="M7.5 8.13334H10C10.3417 8.13334 10.625 7.85001 10.625 7.50834C10.625 7.16667 10.3417 6.88334 10 6.88334H7.5C7.15833 6.88334 6.875 7.16667 6.875 7.50834C6.875 7.85001 7.15833 8.13334 7.5 8.13334Z" fill="white"/>
<path d="M4.97493 6.675C4.50827 6.675 4.1416 7.05 4.1416 7.50834C4.1416 7.96667 4.5166 8.34167 4.97493 8.34167C5.43327 8.34167 5.80827 7.96667 5.80827 7.50834C5.80827 7.05 5.43327 6.675 4.97493 6.675Z" fill="white"/>
<path d="M4.97493 10.0083C4.50827 10.0083 4.1416 10.3833 4.1416 10.8417C4.1416 11.3 4.5166 11.675 4.97493 11.675C5.43327 11.675 5.80827 11.3 5.80827 10.8417C5.80827 10.3833 5.43327 10.0083 4.97493 10.0083Z" fill="white"/>
</svg>
