<svg width="20" height="20" viewBox="0 0 20 20" fill="none" xmlns="http://www.w3.org/2000/svg">
<path d="M16.6667 5.62499C17.9323 5.62499 18.9583 4.59898 18.9583 3.33332C18.9583 2.06767 17.9323 1.04166 16.6667 1.04166C15.401 1.04166 14.375 2.06767 14.375 3.33332C14.375 4.59898 15.401 5.62499 16.6667 5.62499Z" fill="#999999"/>
<path d="M16.6665 6.66666C14.8248 6.66666 13.3332 5.17499 13.3332 3.33332C13.3332 2.72499 13.5082 2.15832 13.7998 1.66666H5.83317C3.53317 1.66666 1.6665 3.52499 1.6665 5.81666V10.8V11.6333C1.6665 13.925 3.53317 15.7833 5.83317 15.7833H7.08317C7.30817 15.7833 7.60817 15.9333 7.74984 16.1167L8.99984 17.775C9.54984 18.5083 10.4498 18.5083 10.9998 17.775L12.2498 16.1167C12.4082 15.9083 12.6582 15.7833 12.9165 15.7833H14.1665C16.4665 15.7833 18.3332 13.925 18.3332 11.6333V6.19999C17.8415 6.49166 17.2748 6.66666 16.6665 6.66666Z" fill="#999999"/>
<path d="M9.99984 10C9.53317 10 9.1665 9.62501 9.1665 9.16668C9.1665 8.70834 9.5415 8.33334 9.99984 8.33334C10.4582 8.33334 10.8332 8.70834 10.8332 9.16668C10.8332 9.62501 10.4665 10 9.99984 10Z" fill="#999999"/>
<path d="M13.3333 10C12.8667 10 12.5 9.62501 12.5 9.16668C12.5 8.70834 12.875 8.33334 13.3333 8.33334C13.7917 8.33334 14.1667 8.70834 14.1667 9.16668C14.1667 9.62501 13.8 10 13.3333 10Z" fill="#999999"/>
<path d="M6.66683 10C6.20016 10 5.8335 9.62501 5.8335 9.16668C5.8335 8.70834 6.2085 8.33334 6.66683 8.33334C7.12516 8.33334 7.50016 8.70834 7.50016 9.16668C7.50016 9.62501 7.1335 10 6.66683 10Z" fill="#999999"/>
</svg>
