<svg width="21" height="20" viewBox="0 0 21 20" fill="none" xmlns="http://www.w3.org/2000/svg">
<path d="M9.5 19C14.7467 19 19 14.7467 19 9.5C19 4.25329 14.7467 0 9.5 0C4.25329 0 0 4.25329 0 9.5C0 14.7467 4.25329 19 9.5 19Z" fill="#CCCCCC"/>
<path d="M19.3001 20C19.1201 20 18.9401 19.93 18.8101 19.8L16.9501 17.94C16.6801 17.67 16.6801 17.23 16.9501 16.95C17.2201 16.68 17.6601 16.68 17.9401 16.95L19.8001 18.81C20.0701 19.08 20.0701 19.52 19.8001 19.8C19.6601 19.93 19.4801 20 19.3001 20Z" fill="#CCCCCC"/>
</svg>
