<svg width="12" height="12" viewBox="0 0 12 12" fill="none" xmlns="http://www.w3.org/2000/svg">
<path d="M11.0526 5.05263H6.94737V0.947368C6.94737 0.429474 6.51789 0 6 0C5.48211 0 5.05263 0.429474 5.05263 0.947368V5.05263H0.947368C0.429474 5.05263 0 5.48211 0 6C0 6.51789 0.429474 6.94737 0.947368 6.94737H5.05263V11.0526C5.05263 11.5705 5.48211 12 6 12C6.51789 12 6.94737 11.5705 6.94737 11.0526V6.94737H11.0526C11.5705 6.94737 12 6.51789 12 6C12 5.48211 11.5705 5.05263 11.0526 5.05263Z" fill="#3E9346"/>
</svg>
