<svg width="20" height="20" viewBox="0 0 20 20" fill="none" xmlns="http://www.w3.org/2000/svg">
<path d="M17.5 7.125H13.5C13.1583 7.125 12.875 6.84167 12.875 6.5V2.5C12.875 2.15833 13.1583 1.875 13.5 1.875C13.8417 1.875 14.125 2.15833 14.125 2.5V5.875H17.5C17.8417 5.875 18.125 6.15833 18.125 6.5C18.125 6.84167 17.8417 7.125 17.5 7.125Z" fill="#999999"/>
<path d="M9.82484 11.8417L7.09984 14.5667C6.79984 14.3 6.50817 14.025 6.22484 13.7417C5.3665 12.875 4.5915 11.9667 3.89984 11.0167C3.2165 10.0667 2.6665 9.11666 2.2665 8.17499C1.8665 7.22499 1.6665 6.31666 1.6665 5.44999C1.6665 4.88332 1.7665 4.34166 1.9665 3.84166C2.1665 3.33332 2.48317 2.86666 2.92484 2.44999C3.45817 1.92499 4.0415 1.66666 4.65817 1.66666C4.8915 1.66666 5.12484 1.71666 5.33317 1.81666C5.54984 1.91666 5.7415 2.06666 5.8915 2.28332L7.82484 5.00832C7.97484 5.21666 8.08317 5.40832 8.15817 5.59166C8.23317 5.76666 8.27484 5.94166 8.27484 6.09999C8.27484 6.29999 8.2165 6.49999 8.09984 6.69166C7.9915 6.88332 7.83317 7.08332 7.63317 7.28332L6.99984 7.94166C6.90817 8.03332 6.8665 8.14166 6.8665 8.27499C6.8665 8.34166 6.87484 8.39999 6.8915 8.46666C6.9165 8.53332 6.9415 8.58332 6.95817 8.63332C7.10817 8.90832 7.3665 9.26666 7.73317 9.69999C8.10817 10.1333 8.50817 10.575 8.9415 11.0167C9.2415 11.3083 9.53317 11.5917 9.82484 11.8417Z" fill="#999999"/>
<path d="M18.3083 15.275C18.3083 15.5083 18.2667 15.75 18.1833 15.9833C18.1583 16.05 18.1333 16.1166 18.1 16.1833C17.9583 16.4833 17.775 16.7666 17.5333 17.0333C17.125 17.4833 16.675 17.8083 16.1667 18.0166C16.1583 18.0166 16.15 18.025 16.1417 18.025C15.65 18.225 15.1167 18.3333 14.5417 18.3333C13.6917 18.3333 12.7833 18.1333 11.825 17.725C10.8667 17.3166 9.90833 16.7666 8.95833 16.075C8.63333 15.8333 8.30833 15.5916 8 15.3333L10.725 12.6083C10.9583 12.7833 11.1667 12.9166 11.3417 13.0083C11.3833 13.025 11.4333 13.05 11.4917 13.075C11.5583 13.1 11.625 13.1083 11.7 13.1083C11.8417 13.1083 11.95 13.0583 12.0417 12.9666L12.675 12.3416C12.8833 12.1333 13.0833 11.975 13.275 11.875C13.4667 11.7583 13.6583 11.7 13.8667 11.7C14.025 11.7 14.1917 11.7333 14.375 11.8083C14.5583 11.8833 14.75 11.9916 14.9583 12.1333L17.7167 14.0916C17.9333 14.2416 18.0833 14.4166 18.175 14.625C18.2583 14.8333 18.3083 15.0416 18.3083 15.275Z" fill="#999999"/>
</svg>
