<svg width="20" height="20" viewBox="0 0 20 20" fill="none" xmlns="http://www.w3.org/2000/svg">
<path d="M17.5665 7.15003V12.85C17.5665 13.7833 17.0665 14.65 16.2581 15.125L11.3081 17.9834C10.4998 18.45 9.4998 18.45 8.68314 17.9834L3.73314 15.125C2.9248 14.6584 2.4248 13.7917 2.4248 12.85V7.15003C2.4248 6.21669 2.9248 5.34999 3.73314 4.87499L8.68314 2.01667C9.49147 1.55 10.4915 1.55 11.3081 2.01667L16.2581 4.87499C17.0665 5.34999 17.5665 6.20836 17.5665 7.15003Z" fill="#999999"/>
<path d="M9.99977 10C11.0721 10 11.9414 9.13067 11.9414 8.05832C11.9414 6.98597 11.0721 6.11669 9.99977 6.11669C8.92742 6.11669 8.05811 6.98597 8.05811 8.05832C8.05811 9.13067 8.92742 10 9.99977 10Z" fill="white"/>
<path d="M12.2331 13.8833C12.9081 13.8833 13.2998 13.1334 12.9248 12.575C12.3581 11.7334 11.2581 11.1667 9.99981 11.1667C8.74148 11.1667 7.64148 11.7334 7.07481 12.575C6.69981 13.1334 7.09148 13.8833 7.76648 13.8833H12.2331Z" fill="white"/>
</svg>
