<svg width="20" height="20" viewBox="0 0 20 20" fill="none" xmlns="http://www.w3.org/2000/svg">
<path d="M11.2502 3.41666L11.2502 16.5833C11.2502 17.8333 11.7835 18.3333 13.1085 18.3333L16.4752 18.3333C17.8002 18.3333 18.3335 17.8333 18.3335 16.5833L18.3335 3.41666C18.3335 2.16666 17.8002 1.66666 16.4752 1.66666L13.1085 1.66666C11.7835 1.66666 11.2502 2.16666 11.2502 3.41666Z" fill="#999999"/>
<path d="M1.66667 9.24999L1.66667 16.5833C1.66667 17.8333 2.2 18.3333 3.525 18.3333L6.89167 18.3333C8.21667 18.3333 8.75 17.8333 8.75 16.5833L8.75 9.25C8.75 8 8.21667 7.5 6.89167 7.5L3.525 7.49999C2.2 7.49999 1.66667 7.99999 1.66667 9.24999Z" fill="#999999"/>
</svg>
