<svg width="20" height="20" viewBox="0 0 20 20" fill="none" xmlns="http://www.w3.org/2000/svg">
<path d="M13.4915 1.66667H6.51647C3.48314 1.66667 1.6748 3.475 1.6748 6.50834V13.4833C1.6748 16.5167 3.48314 18.325 6.51647 18.325H13.4915C16.5248 18.325 18.3331 16.5167 18.3331 13.4833V6.50834C18.3331 3.475 16.5248 1.66667 13.4915 1.66667Z" fill="#999999"/>
<path d="M9.58311 6.74166V14.375C9.58311 14.675 9.28311 14.875 9.00811 14.7583C7.99977 14.325 6.6831 13.925 5.76643 13.8083L5.60809 13.7917C5.09976 13.725 4.68311 13.25 4.68311 12.7333V6.31665C4.68311 5.68332 5.19978 5.20833 5.83311 5.25833C6.87478 5.34166 8.41645 5.84167 9.38312 6.39167C9.50812 6.45001 9.58311 6.59166 9.58311 6.74166Z" fill="white"/>
<path d="M15.3165 6.41667V12.725C15.3165 13.2417 14.8999 13.7167 14.3915 13.7833L14.2165 13.8C13.3082 13.925 11.9998 14.3167 10.9915 14.7417C10.7165 14.8583 10.4165 14.6583 10.4165 14.3583V6.73332C10.4165 6.58332 10.4915 6.44167 10.6248 6.36667C11.5915 5.82501 13.0998 5.34165 14.1248 5.24998H14.1582C14.7998 5.25832 15.3165 5.77501 15.3165 6.41667Z" fill="white"/>
</svg>
