<svg width="12" height="12" viewBox="0 0 12 12" fill="none" xmlns="http://www.w3.org/2000/svg">
<path opacity="0.4" d="M8.99001 5.395V7.395C8.99001 7.525 8.985 7.65 8.97 7.77C8.855 9.12 8.06 9.78999 6.595 9.78999H6.395C6.27 9.78999 6.15 9.85 6.075 9.95L5.47501 10.75C5.21001 11.105 4.78 11.105 4.515 10.75L3.91499 9.95C3.84999 9.865 3.705 9.78999 3.595 9.78999H3.395C1.8 9.78999 1 9.395 1 7.395V5.395C1 3.93 1.675 3.135 3.02 3.02C3.14 3.005 3.265 3 3.395 3H6.595C8.19 3 8.99001 3.8 8.99001 5.395Z" fill="#3E9346"/>
<path d="M4.99512 7C4.71512 7 4.49512 6.775 4.49512 6.5C4.49512 6.225 4.72012 6 4.99512 6C5.27012 6 5.49512 6.225 5.49512 6.5C5.49512 6.775 5.27512 7 4.99512 7Z" fill="#3E9346"/>
<path d="M6.74512 7C6.46512 7 6.24512 6.775 6.24512 6.5C6.24512 6.225 6.47012 6 6.74512 6C7.02012 6 7.24512 6.225 7.24512 6.5C7.24512 6.775 7.02012 7 6.74512 7Z" fill="#3E9346"/>
<path d="M3.25 7C2.97 7 2.75 6.775 2.75 6.5C2.75 6.225 2.975 6 3.25 6C3.525 6 3.75 6.225 3.75 6.5C3.75 6.775 3.525 7 3.25 7Z" fill="#3E9346"/>
<path d="M10.99 3.395V5.395C10.99 6.865 10.315 7.655 8.97002 7.77C8.98502 7.65 8.99002 7.525 8.99002 7.395V5.395C8.99002 3.8 8.19002 3 6.59502 3H3.39502C3.26502 3 3.14002 3.005 3.02002 3.02C3.13502 1.675 3.93002 1 5.39502 1H8.59502C10.19 1 10.99 1.8 10.99 3.395Z" fill="#3E9346"/>
</svg>
