<svg width="18" height="20" viewBox="0 0 18 20" fill="none" xmlns="http://www.w3.org/2000/svg">
<path d="M17.0023 14.3158C16.7216 15.0677 16.1301 15.6391 15.3582 15.8997C14.2755 16.2606 13.1627 16.5313 12.0399 16.7218C11.9296 16.7419 11.8193 16.7619 11.709 16.7719C11.5286 16.802 11.3481 16.8221 11.1677 16.8421C10.9471 16.8722 10.7166 16.8922 10.486 16.9123C9.85441 16.9624 9.23285 16.9925 8.60128 16.9925C7.95967 16.9925 7.31807 16.9624 6.68649 16.9023C6.41581 16.8822 6.15516 16.8521 5.89451 16.812C5.74413 16.792 5.59376 16.7719 5.45341 16.7519C5.34313 16.7318 5.23285 16.7218 5.12258 16.7018C4.0098 16.5213 2.90704 16.2506 1.83436 15.8897C1.03235 15.619 0.420825 15.0476 0.150148 14.3158C-0.120528 13.594 -0.0202776 12.7519 0.4108 12.0301L1.54363 10.1454C1.78423 9.73433 2.00478 8.94235 2.00478 8.46115V6.59649C2.00478 2.95739 4.96218 0 8.60128 0C12.2303 0 15.1877 2.95739 15.1877 6.59649V8.46115C15.1877 8.94235 15.4083 9.73433 15.6589 10.1454L16.7917 12.0301C17.2028 12.7318 17.283 13.5539 17.0023 14.3158Z" fill="#1A1A1A"/>
<path d="M11.4186 18.005C10.9975 19.1679 9.88472 20 8.58146 20C7.78948 20 7.00753 19.6792 6.45615 19.1078C6.13535 18.807 5.89475 18.406 5.75439 17.995C5.88472 18.015 6.01505 18.0251 6.1554 18.0451C6.38597 18.0752 6.62657 18.1053 6.86718 18.1253C7.4386 18.1754 8.02006 18.2055 8.60151 18.2055C9.17294 18.2055 9.74437 18.1754 10.3058 18.1253C10.5163 18.1053 10.7268 18.0952 10.9273 18.0652C11.0877 18.0451 11.2481 18.0251 11.4186 18.005Z" fill="#1A1A1A"/>
</svg>
